<?xml version="1.0" encoding="utf-8"?>
<!-- Generator: Adobe Illustrator 25.4.1, SVG Export Plug-In . SVG Version: 6.00 Build 0)  -->
<svg version="1.1" id="Слой_1" xmlns="http://www.w3.org/2000/svg" xmlns:xlink="http://www.w3.org/1999/xlink" x="0px" y="0px"
	 viewBox="0 0 708.66 708.66" style="enable-background:new 0 0 708.66 708.66;" xml:space="preserve">
<style type="text/css">
	.st0{fill:#CECDCC;}
	.st1{fill:#FFFFFF;}
	.st2{fill:#020203;}
</style>
<g>
	<g>
		<circle class="st0" cx="365.05" cy="345.55" r="231.89"/>
		<path class="st1" d="M365.05,142.41c-112.06,0-203.23,90.71-203.23,202.21s91.17,202.21,203.23,202.21s203.23-90.71,203.23-202.21
			S477.11,142.41,365.05,142.41z M544.61,344.62c0,98.45-80.55,178.54-179.56,178.54s-179.56-80.09-179.56-178.54
			c0-98.45,80.55-178.54,179.56-178.54S544.61,246.17,544.61,344.62z"/>
		<path class="st2" d="M614.22,426.87l-18.16-18.16c5.75-20.38,8.81-41.9,8.81-64.09c0-131.57-107.58-238.61-239.82-238.61
			c-132.2,0-239.78,107.04-239.78,238.61c0,22.19,3.06,43.7,8.81,64.09l-18.16,18.16c-36.66,36.62-36.66,96.59,0,133.21
			c36.62,36.66,96.59,36.66,133.25,0l4.36-4.36c33.3,17.53,71.26,27.47,111.52,27.47c40.26,0,78.22-9.94,111.57-27.43l4.36,4.36
			c36.62,36.62,96.59,36.62,133.25,0C650.83,523.46,650.83,463.53,614.22,426.87z M458.45,537.6
			c-28.27,13.59-59.98,21.22-93.4,21.22c-33.43,0-65.14-7.63-93.4-21.22c-59.35-28.48-103.6-83.3-117.4-149.1
			c-3.02-14.18-4.57-28.86-4.57-43.87c0-118.11,96.59-214.2,215.37-214.2s215.41,96.09,215.41,214.2c0,15.06-1.55,29.74-4.57,43.91
			C562.08,454.3,517.79,509.12,458.45,537.6z"/>
		<path class="st2" d="M367.69,166.08h-3.72c-0.8,0-1.46-0.66-1.46-1.46v-26.38c0-0.8,0.66-1.46,1.46-1.46h3.72
			c0.8,0,1.46,0.66,1.46,1.46v26.38C369.15,165.42,368.49,166.08,367.69,166.08z"/>
		<path class="st2" d="M185.49,344.34v3.72c0,0.8-0.66,1.46-1.46,1.46h-26.38c-0.8,0-1.46-0.66-1.46-1.46v-3.72
			c0-0.8,0.66-1.46,1.46-1.46h26.38C184.83,342.88,185.49,343.54,185.49,344.34z"/>
		<path class="st2" d="M209.21,433.24l1.86,3.22c0.4,0.7,0.16,1.59-0.53,1.99l-22.84,13.19c-0.7,0.4-1.59,0.16-1.99-0.53l-1.86-3.22
			c-0.4-0.7-0.16-1.59,0.53-1.99l22.84-13.19C207.91,432.3,208.8,432.54,209.21,433.24z"/>
		<path class="st2" d="M208.91,256.56l1.86-3.22c0.4-0.7,0.16-1.59-0.53-1.99l-22.84-13.19c-0.7-0.4-1.59-0.16-1.99,0.53l-1.86,3.22
			c-0.4,0.7-0.16,1.59,0.53,1.99l22.84,13.19C207.61,257.49,208.51,257.25,208.91,256.56z"/>
		<path class="st2" d="M274.22,190.59l3.26-1.79c0.7-0.39,0.96-1.28,0.58-1.98l-12.67-23.13c-0.39-0.7-1.28-0.96-1.98-0.58
			l-3.26,1.79c-0.7,0.39-0.96,1.28-0.58,1.98l12.67,23.13C272.62,190.71,273.52,190.98,274.22,190.59z"/>
		<path class="st2" d="M263.71,526.23l-3.26-1.79c-0.7-0.39-0.96-1.28-0.58-1.98l12.67-23.13c0.39-0.7,1.28-0.96,1.98-0.58
			l3.26,1.79c0.7,0.39,0.96,1.28,0.58,1.98l-12.67,23.13C265.31,526.36,264.42,526.62,263.71,526.23z"/>
		<path class="st2" d="M546.17,344.34v3.72c0,0.8,0.66,1.46,1.46,1.46H574c0.8,0,1.46-0.66,1.46-1.46v-3.72
			c0-0.8-0.66-1.46-1.46-1.46h-26.38C546.83,342.88,546.17,343.54,546.17,344.34z"/>
		<path class="st2" d="M522.45,433.24l-1.86,3.22c-0.4,0.7-0.16,1.59,0.53,1.99l22.84,13.19c0.7,0.4,1.59,0.16,1.99-0.53l1.86-3.22
			c0.4-0.7,0.16-1.59-0.53-1.99l-22.84-13.19C523.75,432.3,522.85,432.54,522.45,433.24z"/>
		<path class="st2" d="M522.75,256.56l-1.86-3.22c-0.4-0.7-0.16-1.59,0.53-1.99l22.84-13.19c0.7-0.4,1.59-0.16,1.99,0.53l1.86,3.22
			c0.4,0.7,0.16,1.59-0.53,1.99l-22.84,13.19C524.05,257.49,523.15,257.25,522.75,256.56z"/>
		<path class="st2" d="M457.44,190.59l-3.26-1.79c-0.7-0.39-0.96-1.28-0.58-1.98l12.67-23.13c0.39-0.7,1.28-0.96,1.98-0.58
			l3.26,1.79c0.7,0.39,0.96,1.28,0.58,1.98l-12.67,23.13C459.03,190.71,458.14,190.98,457.44,190.59z"/>
		<path class="st2" d="M467.94,526.23l3.26-1.79c0.7-0.39,0.96-1.28,0.58-1.98l-12.67-23.13c-0.39-0.7-1.28-0.96-1.98-0.58
			l-3.26,1.79c-0.7,0.39-0.96,1.28-0.58,1.98l12.67,23.13C466.35,526.36,467.24,526.62,467.94,526.23z"/>
	</g>
</g>
</svg>
