<?xml version="1.0" encoding="utf-8"?>
<!-- Generator: Adobe Illustrator 25.4.1, SVG Export Plug-In . SVG Version: 6.00 Build 0)  -->
<svg version="1.1" id="Слой_1" xmlns="http://www.w3.org/2000/svg" xmlns:xlink="http://www.w3.org/1999/xlink" x="0px" y="0px"
	 viewBox="0 0 141.73 708.66" style="enable-background:new 0 0 141.73 708.66;" xml:space="preserve">
<style type="text/css">
	.st0{fill:#020203;}
</style>
<path class="st0" d="M136.81,670.96c0-32.48-23.33-59.38-54.17-65.02l0-128.07c1.06-0.46,2.15-0.84,3.18-1.43
	c14.51-8.38,19.48-26.93,11.1-41.43c-3.39-5.88-8.49-10.09-14.28-12.59l0-269.54l26.67,0L70.66-0.03L32,152.87l26.68,0l0,269.6
	c-1.06,0.46-2.15,0.84-3.18,1.43c-14.51,8.38-19.48,26.93-11.1,41.43c3.39,5.88,8.49,10.09,14.28,12.59l0,128.02
	c-30.84,5.63-54.17,32.54-54.17,65.02c0,13.91,4.38,26.94,11.83,37.68c-2.52-6.35-3.83-13.25-3.83-20.48
	c0-32.09,26.07-58.05,58.16-58.05s58.16,25.96,58.16,58.05c0,7.23-1.31,14.13-3.83,20.48C132.43,697.9,136.81,684.87,136.81,670.96z
	"/>
</svg>
