<svg id="Слой_1" data-name="Слой 1" xmlns="http://www.w3.org/2000/svg" viewBox="0 0 99 99">
  <defs>
    <style>
      .cls-1 {
        fill: #5e6360;
      }

      .cls-2 {
        fill: #8c8c8d;
      }

      .cls-3 {
        fill: #cecdcc;
      }
    </style>
  </defs>
  <g>
    <path class="cls-1" d="M345.16,410.79H337a.82.82,0,0,1-.41-1.53l7.06-4a1.85,1.85,0,0,0,.68-2.52l-7.75-13.59a1.86,1.86,0,0,0-2.52-.69l-7.19,4.11a.78.78,0,0,1-1-1.07l4.21-7.12a1.84,1.84,0,0,0-.65-2.53l-.13-.07a1.81,1.81,0,0,0-.46-.41l-6.21-3.54-6.67-3.94a1.7,1.7,0,0,0-.63-.22l-.09-.05a1.83,1.83,0,0,0-2.51.69l-4.18,7.33a.73.73,0,0,1-1.37-.36V372.8a1.84,1.84,0,0,0-1.84-1.84H289.67a1.84,1.84,0,0,0-1.84,1.84v8.59a.7.7,0,0,1-1.31.34l-4.24-7.44a1.84,1.84,0,0,0-2.52-.69l-13.59,7.76a1.84,1.84,0,0,0-.69,2.51l4.29,7.52a.66.66,0,0,1-.91.9l-7.47-4.41a1.84,1.84,0,0,0-2.52.65l-.15.25a1.51,1.51,0,0,0-.33.38l-2.91,5.1L250.9,402a1.81,1.81,0,0,0-.24.71l0,0a1.84,1.84,0,0,0,.69,2.52l7.5,4.28a.66.66,0,0,1-.33,1.24h-8.65a1.84,1.84,0,0,0-1.84,1.84v15.65a1.84,1.84,0,0,0,1.84,1.84h8.56a.71.71,0,0,1,.35,1.32l-7.44,4.24a1.86,1.86,0,0,0-.69,2.52l7.76,13.59a1.85,1.85,0,0,0,2.52.69l7.33-4.19a.71.71,0,0,1,1,1l-4.3,7.28a1.84,1.84,0,0,0,.65,2.53l.13.07a1.76,1.76,0,0,0,.5.44l6.72,3.83L279,467a1.74,1.74,0,0,0,.58.2l.18.1a1.83,1.83,0,0,0,2.51-.69l4.1-7.19a.77.77,0,0,1,1.43.38v8.27a1.84,1.84,0,0,0,1.84,1.84h15.65a1.84,1.84,0,0,0,1.84-1.84V460a.82.82,0,0,1,1.53-.41l4,7.07a1.84,1.84,0,0,0,2.52.69l13.59-7.76a1.85,1.85,0,0,0,.69-2.51l-4-7a.82.82,0,0,1,1.13-1.12l6.93,4.1a1.84,1.84,0,0,0,2.53-.65l0,0a1.7,1.7,0,0,0,.5-.56L341.1,444l3-5.06a1.7,1.7,0,0,0,.16-.48l.14-.24a1.85,1.85,0,0,0-.69-2.52l-7-4a.84.84,0,0,1,.41-1.56h8.06a1.84,1.84,0,0,0,1.84-1.84V412.63A1.84,1.84,0,0,0,345.16,410.79Z" transform="translate(-248.01 -370.96)"/>
    <circle class="cls-2" cx="49.49" cy="49.5" r="33.11"/>
    <circle class="cls-3" cx="49.49" cy="49.5" r="24.3"/>
  </g>
</svg>
