<?xml version="1.0" encoding="utf-8"?>
<!-- Generator: Adobe Illustrator 25.4.1, SVG Export Plug-In . SVG Version: 6.00 Build 0)  -->
<svg version="1.1" id="Слой_1" xmlns="http://www.w3.org/2000/svg" xmlns:xlink="http://www.w3.org/1999/xlink" x="0px" y="0px"
	 viewBox="0 0 595.28 841.89" style="enable-background:new 0 0 595.28 841.89;" xml:space="preserve">
<style type="text/css">
	.st0{fill:#020203;}
</style>
<path class="st0" d="M308.65,473.81c0-5.47-3.93-10-9.13-10.95v-21.58c0.18-0.08,0.36-0.14,0.54-0.24c2.44-1.41,3.28-4.54,1.87-6.98
	c-0.57-0.99-1.43-1.7-2.41-2.12l0-45.41h4.49l-6.51-25.76l-6.51,25.76h4.49l0,45.42c-0.18,0.08-0.36,0.14-0.54,0.24
	c-2.44,1.41-3.28,4.54-1.87,6.98c0.57,0.99,1.43,1.7,2.41,2.12v21.57c-5.2,0.95-9.13,5.48-9.13,10.95c0,2.34,0.74,4.54,1.99,6.35
	c-0.42-1.07-0.65-2.23-0.65-3.45c0-5.41,4.39-9.78,9.8-9.78c5.41,0,9.8,4.37,9.8,9.78c0,1.22-0.22,2.38-0.65,3.45
	C307.91,478.34,308.65,476.15,308.65,473.81z"/>
</svg>
